<svg id="SvgjsSvg4078" width="95.25" height="50" xmlns="http://www.w3.org/2000/svg" version="1.1" xmlns:xlink="http://www.w3.org/1999/xlink" xmlns:svgjs="http://svgjs.dev" class="apexcharts-svg" xmlns:data="ApexChartsNS" transform="translate(0, 0)" style="background: transparent;"><g id="SvgjsG4080" class="apexcharts-inner apexcharts-graphical" transform="translate(0, 0)"><defs id="SvgjsDefs4079"><clipPath id="gridRectMask30thqv2l"><rect id="SvgjsRect4084" width="101.25" height="52" x="-3" y="-1" rx="0" ry="0" opacity="1" stroke-width="0" stroke="none" stroke-dasharray="0" fill="#fff"></rect></clipPath><clipPath id="forecastMask30thqv2l"></clipPath><clipPath id="nonForecastMask30thqv2l"></clipPath><clipPath id="gridRectMarkerMask30thqv2l"><rect id="SvgjsRect4085" width="99.25" height="54" x="-2" y="-2" rx="0" ry="0" opacity="1" stroke-width="0" stroke="none" stroke-dasharray="0" fill="#fff"></rect></clipPath></defs><g id="SvgjsG4109" class="apexcharts-xaxis" transform="translate(0, 0)"><g id="SvgjsG4110" class="apexcharts-xaxis-texts-g" transform="translate(0, 4)"></g></g><g id="SvgjsG4092" class="apexcharts-grid"><g id="SvgjsG4093" class="apexcharts-gridlines-horizontal" style="display: none;"><line id="SvgjsLine4097" x1="0" y1="5" x2="95.25" y2="5" stroke="#e0e0e0" stroke-dasharray="0" stroke-linecap="butt" class="apexcharts-gridline"></line><line id="SvgjsLine4098" x1="0" y1="10" x2="95.25" y2="10" stroke="#e0e0e0" stroke-dasharray="0" stroke-linecap="butt" class="apexcharts-gridline"></line><line id="SvgjsLine4099" x1="0" y1="15" x2="95.25" y2="15" stroke="#e0e0e0" stroke-dasharray="0" stroke-linecap="butt" class="apexcharts-gridline"></line><line id="SvgjsLine4100" x1="0" y1="20" x2="95.25" y2="20" stroke="#e0e0e0" stroke-dasharray="0" stroke-linecap="butt" class="apexcharts-gridline"></line><line id="SvgjsLine4101" x1="0" y1="25" x2="95.25" y2="25" stroke="#e0e0e0" stroke-dasharray="0" stroke-linecap="butt" class="apexcharts-gridline"></line><line id="SvgjsLine4102" x1="0" y1="30" x2="95.25" y2="30" stroke="#e0e0e0" stroke-dasharray="0" stroke-linecap="butt" class="apexcharts-gridline"></line><line id="SvgjsLine4103" x1="0" y1="35" x2="95.25" y2="35" stroke="#e0e0e0" stroke-dasharray="0" stroke-linecap="butt" class="apexcharts-gridline"></line><line id="SvgjsLine4104" x1="0" y1="40" x2="95.25" y2="40" stroke="#e0e0e0" stroke-dasharray="0" stroke-linecap="butt" class="apexcharts-gridline"></line><line id="SvgjsLine4105" x1="0" y1="45" x2="95.25" y2="45" stroke="#e0e0e0" stroke-dasharray="0" stroke-linecap="butt" class="apexcharts-gridline"></line></g><g id="SvgjsG4094" class="apexcharts-gridlines-vertical" style="display: none;"></g><line id="SvgjsLine4108" x1="0" y1="50" x2="95.25" y2="50" stroke="transparent" stroke-dasharray="0" stroke-linecap="butt"></line><line id="SvgjsLine4107" x1="0" y1="1" x2="0" y2="50" stroke="transparent" stroke-dasharray="0" stroke-linecap="butt"></line></g><g id="SvgjsG4086" class="apexcharts-area-series apexcharts-plot-series"><g id="SvgjsG4087" class="apexcharts-series" seriesName="NetxProfit" data:longestSeries="true" rel="1" data:realIndex="0"><path id="SvgjsPath4090" d="M 0 50 L 0 40C 2.5644230769230765 40 4.7625 45.833333333333336 7.326923076923077 45.833333333333336C 9.891346153846154 45.833333333333336 12.089423076923076 30.833333333333332 14.653846153846153 30.833333333333332C 17.21826923076923 30.833333333333332 19.416346153846153 40 21.98076923076923 40C 24.545192307692307 40 26.74326923076923 32.5 29.307692307692307 32.5C 31.872115384615384 32.5 34.07019230769231 42.5 36.63461538461539 42.5C 39.199038461538464 42.5 41.39711538461538 35.83333333333333 43.96153846153846 35.83333333333333C 46.52596153846154 35.83333333333333 48.72403846153846 33.33333333333333 51.28846153846154 33.33333333333333C 53.85288461538462 33.33333333333333 56.050961538461536 46.666666666666664 58.61538461538461 46.666666666666664C 61.17980769230769 46.666666666666664 63.377884615384616 30 65.9423076923077 30C 68.50673076923077 30 70.7048076923077 42.5 73.26923076923077 42.5C 75.83365384615385 42.5 78.03173076923078 39.166666666666664 80.59615384615385 39.166666666666664C 83.16057692307693 39.166666666666664 85.35865384615384 35 87.92307692307692 35C 90.4875 35 92.68557692307692 42.5 95.25 42.5C 95.25 42.5 95.25 42.5 95.25 50M 95.25 42.5z" fill="rgba(255,255,255,1)" fill-opacity="1" stroke-opacity="1" stroke-linecap="butt" stroke-width="0" stroke-dasharray="0" class="apexcharts-area" index="0" clip-path="url(#gridRectMask30thqv2l)" pathTo="M 0 50 L 0 40C 2.5644230769230765 40 4.7625 45.833333333333336 7.326923076923077 45.833333333333336C 9.891346153846154 45.833333333333336 12.089423076923076 30.833333333333332 14.653846153846153 30.833333333333332C 17.21826923076923 30.833333333333332 19.416346153846153 40 21.98076923076923 40C 24.545192307692307 40 26.74326923076923 32.5 29.307692307692307 32.5C 31.872115384615384 32.5 34.07019230769231 42.5 36.63461538461539 42.5C 39.199038461538464 42.5 41.39711538461538 35.83333333333333 43.96153846153846 35.83333333333333C 46.52596153846154 35.83333333333333 48.72403846153846 33.33333333333333 51.28846153846154 33.33333333333333C 53.85288461538462 33.33333333333333 56.050961538461536 46.666666666666664 58.61538461538461 46.666666666666664C 61.17980769230769 46.666666666666664 63.377884615384616 30 65.9423076923077 30C 68.50673076923077 30 70.7048076923077 42.5 73.26923076923077 42.5C 75.83365384615385 42.5 78.03173076923078 39.166666666666664 80.59615384615385 39.166666666666664C 83.16057692307693 39.166666666666664 85.35865384615384 35 87.92307692307692 35C 90.4875 35 92.68557692307692 42.5 95.25 42.5C 95.25 42.5 95.25 42.5 95.25 50M 95.25 42.5z" pathFrom="M -1 50 L -1 50 L 7.326923076923077 50 L 14.653846153846153 50 L 21.98076923076923 50 L 29.307692307692307 50 L 36.63461538461539 50 L 43.96153846153846 50 L 51.28846153846154 50 L 58.61538461538461 50 L 65.9423076923077 50 L 73.26923076923077 50 L 80.59615384615385 50 L 87.92307692307692 50 L 95.25 50"></path><path id="SvgjsPath4091" d="M 0 40C 2.5644230769230765 40 4.7625 45.833333333333336 7.326923076923077 45.833333333333336C 9.891346153846154 45.833333333333336 12.089423076923076 30.833333333333332 14.653846153846153 30.833333333333332C 17.21826923076923 30.833333333333332 19.416346153846153 40 21.98076923076923 40C 24.545192307692307 40 26.74326923076923 32.5 29.307692307692307 32.5C 31.872115384615384 32.5 34.07019230769231 42.5 36.63461538461539 42.5C 39.199038461538464 42.5 41.39711538461538 35.83333333333333 43.96153846153846 35.83333333333333C 46.52596153846154 35.83333333333333 48.72403846153846 33.33333333333333 51.28846153846154 33.33333333333333C 53.85288461538462 33.33333333333333 56.050961538461536 46.666666666666664 58.61538461538461 46.666666666666664C 61.17980769230769 46.666666666666664 63.377884615384616 30 65.9423076923077 30C 68.50673076923077 30 70.7048076923077 42.5 73.26923076923077 42.5C 75.83365384615385 42.5 78.03173076923078 39.166666666666664 80.59615384615385 39.166666666666664C 83.16057692307693 39.166666666666664 85.35865384615384 35 87.92307692307692 35C 90.4875 35 92.68557692307692 42.5 95.25 42.5" fill="none" fill-opacity="1" stroke="#50cd89" stroke-opacity="1" stroke-linecap="butt" stroke-width="2" stroke-dasharray="0" class="apexcharts-area" index="0" clip-path="url(#gridRectMask30thqv2l)" pathTo="M 0 40C 2.5644230769230765 40 4.7625 45.833333333333336 7.326923076923077 45.833333333333336C 9.891346153846154 45.833333333333336 12.089423076923076 30.833333333333332 14.653846153846153 30.833333333333332C 17.21826923076923 30.833333333333332 19.416346153846153 40 21.98076923076923 40C 24.545192307692307 40 26.74326923076923 32.5 29.307692307692307 32.5C 31.872115384615384 32.5 34.07019230769231 42.5 36.63461538461539 42.5C 39.199038461538464 42.5 41.39711538461538 35.83333333333333 43.96153846153846 35.83333333333333C 46.52596153846154 35.83333333333333 48.72403846153846 33.33333333333333 51.28846153846154 33.33333333333333C 53.85288461538462 33.33333333333333 56.050961538461536 46.666666666666664 58.61538461538461 46.666666666666664C 61.17980769230769 46.666666666666664 63.377884615384616 30 65.9423076923077 30C 68.50673076923077 30 70.7048076923077 42.5 73.26923076923077 42.5C 75.83365384615385 42.5 78.03173076923078 39.166666666666664 80.59615384615385 39.166666666666664C 83.16057692307693 39.166666666666664 85.35865384615384 35 87.92307692307692 35C 90.4875 35 92.68557692307692 42.5 95.25 42.5" pathFrom="M -1 50 L -1 50 L 7.326923076923077 50 L 14.653846153846153 50 L 21.98076923076923 50 L 29.307692307692307 50 L 36.63461538461539 50 L 43.96153846153846 50 L 51.28846153846154 50 L 58.61538461538461 50 L 65.9423076923077 50 L 73.26923076923077 50 L 80.59615384615385 50 L 87.92307692307692 50 L 95.25 50" fill-rule="evenodd"></path><g id="SvgjsG4088" class="apexcharts-series-markers-wrap" data:realIndex="0"></g></g><g id="SvgjsG4089" class="apexcharts-datalabels" data:realIndex="0"></g></g><g id="SvgjsG4095" class="apexcharts-grid-borders" style="display: none;"><line id="SvgjsLine4096" x1="0" y1="0" x2="95.25" y2="0" stroke="#e0e0e0" stroke-dasharray="0" stroke-linecap="butt" class="apexcharts-gridline"></line><line id="SvgjsLine4106" x1="0" y1="50" x2="95.25" y2="50" stroke="#e0e0e0" stroke-dasharray="0" stroke-linecap="butt" class="apexcharts-gridline"></line></g><line id="SvgjsLine4126" x1="0" y1="0" x2="95.25" y2="0" stroke="#b6b6b6" stroke-dasharray="0" stroke-width="1" stroke-linecap="butt" class="apexcharts-ycrosshairs"></line><line id="SvgjsLine4127" x1="0" y1="0" x2="95.25" y2="0" stroke-dasharray="0" stroke-width="0" stroke-linecap="butt" class="apexcharts-ycrosshairs-hidden"></line><g id="SvgjsG4128" class="apexcharts-yaxis-annotations"></g><g id="SvgjsG4129" class="apexcharts-xaxis-annotations"></g><g id="SvgjsG4130" class="apexcharts-point-annotations"></g></g><g id="SvgjsG4125" class="apexcharts-yaxis" rel="0" transform="translate(-18, 0)"></g><g id="SvgjsG4081" class="apexcharts-annotations"></g></svg>